<svg id="Layer_1" data-name="Layer 1" xmlns="http://www.w3.org/2000/svg" viewBox="0 0 331.29 54.43"><defs><style>.cls-1{fill:#231f20;}</style></defs><title>Artboard 1</title><path class="cls-1" d="M10.06,37.28l4.73-5.65a15.82,15.82,0,0,0,10,3.68c2.28,0,3.5-.79,3.5-2.11v-.08c0-1.28-1-2-5.17-2.94-6.52-1.49-11.56-3.33-11.56-9.64v-.09c0-5.69,4.51-9.81,11.87-9.81A19.28,19.28,0,0,1,36,14.72l-4.25,6a15.42,15.42,0,0,0-8.59-3c-2.06,0-3.07.88-3.07,2v.08c0,1.41,1.06,2,5.31,3,7.05,1.54,11.43,3.81,11.43,9.55v.09c0,6.27-4.95,10-12.4,10A21.45,21.45,0,0,1,10.06,37.28Z"/><path class="cls-1" d="M49.9,11h8.19l13,30.88H62L59.8,36.36H48l-2.19,5.47H36.84Zm7.44,18.79L53.93,21l-3.46,8.72Z"/><path class="cls-1" d="M70.37,37.28l4.73-5.65A15.77,15.77,0,0,0,85,35.31c2.28,0,3.51-.79,3.51-2.11v-.08c0-1.28-1-2-5.17-2.94-6.53-1.49-11.57-3.33-11.57-9.64v-.09c0-5.69,4.52-9.81,11.87-9.81A19.26,19.26,0,0,1,96.3,14.72l-4.25,6a15.39,15.39,0,0,0-8.58-3c-2.06,0-3.07.88-3.07,2v.08c0,1.41,1,2,5.3,3,7,1.54,11.43,3.81,11.43,9.55v.09c0,6.27-4.95,10-12.39,10A21.41,21.41,0,0,1,70.37,37.28Z"/><path class="cls-1" d="M98.5,37.28l4.73-5.65a15.77,15.77,0,0,0,9.94,3.68c2.28,0,3.51-.79,3.51-2.11v-.08c0-1.28-1-2-5.17-2.94-6.53-1.49-11.57-3.33-11.57-9.64v-.09c0-5.69,4.51-9.81,11.87-9.81a19.26,19.26,0,0,1,12.62,4.08l-4.25,6a15.39,15.39,0,0,0-8.59-3c-2,0-3.06.88-3.06,2v.08c0,1.41,1,2,5.3,3,7,1.54,11.43,3.81,11.43,9.55v.09c0,6.27-5,10-12.4,10A21.4,21.4,0,0,1,98.5,37.28Z"/><path class="cls-1" d="M135.92,30.36,124.27,11.17H134l6.31,11.17,6.35-11.17h9.5l-11.65,19V41.83h-8.54Z"/><path class="cls-1" d="M154.81,11.17h9l5.35,17.74,5.91-17.83h7.32l5.91,17.83,5.35-17.74h8.8L192.18,42.05h-7.4L178.6,24.4l-6.13,17.65h-7.41Z"/><path class="cls-1" d="M201,26.59V26.5c0-8.81,7.09-15.95,16.56-15.95S234,17.61,234,26.41v.09c0,8.81-7.1,16-16.56,16C210.68,42.45,201,35.39,201,26.59Zm24.35,0V26.5c0-4.42-3.19-8.28-7.88-8.28s-7.75,3.77-7.75,8.19v.09c0,4.42,3.19,8.28,7.84,8.28S225.36,31,225.36,26.59Z"/><path class="cls-1" d="M236.47,11.17H251c4.69,0,7.93,1.22,10,3.33a9.51,9.51,0,0,1,2.71,7.14v.09a9.68,9.68,0,0,1-6.31,9.41l7.32,10.69h-9.81l-6.18-9.28H245v9.28h-8.5Zm14.1,14.72c2.9,0,4.56-1.41,4.56-3.64v-.09c0-2.41-1.75-3.63-4.6-3.63H245v7.36Z"/><path class="cls-1" d="M268,11.17h8.5V23.61L287,11.17H297.1L285.49,24.35l12,17.48H287.29l-6.71-11.39-4.11,3.46v7.93H268Z"/><path class="cls-1" d="M296.19,37.28l4.74-5.65a15.77,15.77,0,0,0,9.94,3.68c2.28,0,3.5-.79,3.5-2.11v-.08c0-1.28-1-2-5.16-2.94-6.53-1.49-11.57-3.33-11.57-9.64v-.09c0-5.69,4.51-9.81,11.87-9.81a19.28,19.28,0,0,1,12.62,4.08l-4.25,6a15.39,15.39,0,0,0-8.59-3c-2.06,0-3.06.88-3.06,2v.08c0,1.41,1,2,5.3,3,7.05,1.54,11.43,3.81,11.43,9.55v.09c0,6.27-4.95,10-12.4,10A21.45,21.45,0,0,1,296.19,37.28Z"/></svg>