<?xml version="1.0" encoding="utf-8"?>
<!-- Generator: Adobe Illustrator 22.0.1, SVG Export Plug-In . SVG Version: 6.00 Build 0)  -->
<svg version="1.1" id="Layer_1" xmlns="http://www.w3.org/2000/svg" xmlns:xlink="http://www.w3.org/1999/xlink" x="0px" y="0px"
	 viewBox="0 0 75 72" style="enable-background:new 0 0 75 72;" xml:space="preserve">
<style type="text/css">
	.st0{fill:#79879E;}
</style>
<g>
	<path class="st0" d="M0.7,2.2h3.9c3.3,0,5.6,2.3,5.6,5.2c0,3-2.3,5.2-5.6,5.2H0.7V2.2z M4.6,11c2.2,0,3.6-1.5,3.6-3.6
		S6.8,3.8,4.6,3.8H2.5V11H4.6z"/>
	<path class="st0" d="M12,2.2h7.8v1.6h-5.9v2.7h5.3v1.6h-5.3V11h6v1.6H12V2.2z"/>
	<path class="st0" d="M21,11.1l1.1-1.3c1,0.9,2,1.4,3.3,1.4c1.1,0,1.9-0.5,1.9-1.3c0-0.7-0.4-1.2-2.4-1.6c-2.2-0.5-3.5-1.2-3.5-3.1
		c0-1.8,1.5-3,3.6-3c1.5,0,2.7,0.5,3.8,1.3l-1,1.4C26.9,4,25.9,3.7,25,3.7c-1.1,0-1.7,0.6-1.7,1.3c0,0.8,0.5,1.2,2.5,1.6
		c2.2,0.5,3.4,1.3,3.4,3.1c0,2-1.5,3.1-3.7,3.1C23.8,12.8,22.3,12.3,21,11.1z"/>
	<path class="st0" d="M31,2.2h1.8v10.5H31V2.2z"/>
	<path class="st0" d="M34.8,7.4C34.8,4.5,37,2,40.2,2c1.8,0,3,0.5,4,1.4L43,4.8c-0.8-0.7-1.6-1.1-2.9-1.1c-1.9,0-3.4,1.7-3.4,3.7
		c0,2.2,1.4,3.7,3.6,3.7c1,0,1.9-0.3,2.5-0.8v-2h-2.7V6.8h4.5v4.4c-1,0.9-2.5,1.6-4.4,1.6C37,12.8,34.8,10.5,34.8,7.4z"/>
	<path class="st0" d="M46.6,2.2h1.7L54,9.4V2.2h1.8v10.5h-1.5l-5.8-7.5v7.5h-1.8V2.2H46.6z"/>
	<path class="st0" d="M0,24.8l1.1-1.3c1,0.9,2,1.4,3.3,1.4c1.1,0,1.9-0.5,1.9-1.3c0-0.7-0.4-1.2-2.4-1.6c-2.2-0.5-3.5-1.2-3.5-3.1
		c0-1.8,1.5-3,3.6-3c1.5,0,2.7,0.5,3.8,1.3l-1,1.4c-0.9-0.7-1.9-1.1-2.8-1.1c-1.1,0-1.7,0.6-1.7,1.3c0,0.8,0.5,1.2,2.5,1.6
		c2.2,0.5,3.4,1.3,3.4,3.1c0,2-1.5,3.1-3.7,3.1C2.8,26.4,1.3,25.9,0,24.8z"/>
	<path class="st0" d="M12.3,17.5H8.9v-1.7h8.5v1.7h-3.3v8.8h-1.9v-8.8H12.3z"/>
	<path class="st0" d="M19,15.8h4.7c2.5,0,3.9,1.3,3.9,3.3c0,1.7-1,2.8-2.5,3.2l2.8,4h-2.2l-2.6-3.7h-2.3v3.7H19V15.8z M23.6,21
		c1.3,0,2.2-0.7,2.2-1.8c0-1.1-0.8-1.7-2.2-1.7h-2.7V21H23.6z"/>
	<path class="st0" d="M29.6,15.8h1.8v10.5h-1.8V15.8z"/>
	<path class="st0" d="M33.8,15.8H38c2.4,0,4,1.4,4,3.5c0,2.4-1.9,3.6-4.2,3.6h-2.1v3.4h-1.8V15.8H33.8z M37.8,21.2
		c1.4,0,2.3-0.8,2.3-1.9c0-1.2-0.9-1.9-2.3-1.9h-2.1v3.8H37.8z"/>
	<path class="st0" d="M43.5,15.8h4.1c2.4,0,4,1.4,4,3.5c0,2.4-1.9,3.6-4.2,3.6h-2.1v3.4h-1.8V15.8z M47.5,21.2
		c1.4,0,2.3-0.8,2.3-1.9c0-1.2-0.9-1.9-2.3-1.9h-2.1v3.8H47.5z"/>
	<path class="st0" d="M53.1,15.8h7.8v1.6H55v2.7h5.3v1.6H55v2.8h6v1.6h-7.9C53.1,26.1,53.1,15.8,53.1,15.8z"/>
	<path class="st0" d="M62.8,15.8h3.9c3.3,0,5.6,2.3,5.6,5.2c0,3-2.3,5.2-5.6,5.2h-3.9C62.8,26.2,62.8,15.8,62.8,15.8z M66.7,24.6
		c2.2,0,3.6-1.5,3.6-3.6s-1.4-3.6-3.6-3.6h-2.1v7.1h2.1V24.6z"/>
	<path class="st0" d="M0.7,29.4h3.9c3.3,0,5.6,2.3,5.6,5.2c0,3-2.3,5.2-5.6,5.2H0.7V29.4z M4.6,38.2c2.2,0,3.6-1.5,3.6-3.6
		S6.8,31,4.6,31H2.5v7.1L4.6,38.2L4.6,38.2z"/>
	<path class="st0" d="M11.6,34.7c0-3,2.3-5.4,5.5-5.4s5.5,2.4,5.5,5.4s-2.3,5.4-5.5,5.4S11.6,37.6,11.6,34.7z M20.6,34.7
		c0-2-1.5-3.7-3.6-3.7s-3.5,1.7-3.5,3.7s1.5,3.7,3.6,3.7S20.6,36.7,20.6,34.7z"/>
	<path class="st0" d="M23,29.4h2l2.5,7.8l2.6-7.8h1.6l2.6,7.8l2.5-7.8h1.9L35,40h-1.6l-2.6-7.5L28.3,40h-1.6L23,29.4z"/>
	<path class="st0" d="M40.2,29.4h1.7l5.6,7.3v-7.3h1.8v10.5h-1.5L42,32.4v7.5h-1.8V29.4z"/>
	<path class="st0" d="M58.3,31.1H55v-1.7h8.5v1.7h-3.3v8.8h-1.9V31.1z"/>
	<path class="st0" d="M64,34.7c0-3,2.3-5.4,5.5-5.4s5.5,2.4,5.5,5.4s-2.3,5.4-5.5,5.4S64,37.6,64,34.7z M73.1,34.7
		c0-2-1.5-3.7-3.6-3.7S66,32.7,66,34.7s1.5,3.7,3.6,3.7C71.6,38.4,73.1,36.7,73.1,34.7z"/>
	<path class="st0" d="M0.8,43h1.8v10.5H0.8V43z"/>
	<path class="st0" d="M7.7,44.7H4.3V43h8.5v1.7H9.5v8.8H7.7V44.7z"/>
	<path class="st0" d="M13.5,52l1.1-1.3c1,0.9,2,1.4,3.3,1.4c1.1,0,1.9-0.5,1.9-1.3c0-0.7-0.4-1.2-2.4-1.6c-2.2-0.5-3.5-1.2-3.5-3.1
		c0-1.8,1.5-3,3.6-3c1.5,0,2.7,0.5,3.8,1.3l-1,1.4c-0.9-0.7-1.9-1.1-2.8-1.1c-1.1,0-1.7,0.6-1.7,1.3c0,0.8,0.5,1.2,2.5,1.6
		c2.2,0.5,3.4,1.3,3.4,3.1c0,2-1.5,3.1-3.7,3.1C16.2,53.7,14.7,53.1,13.5,52z"/>
	<path class="st0" d="M27.5,43h4.7c1.2,0,2.1,0.3,2.7,0.9c0.5,0.5,0.7,1,0.7,1.8c0,1.3-0.7,1.9-1.5,2.3c1.2,0.4,2.1,1.1,2.1,2.6
		c0,1.9-1.5,2.9-3.9,2.9h-4.9V43H27.5z M31.8,47.4c1.2,0,2-0.5,2-1.5c0-0.8-0.7-1.3-1.8-1.3h-2.7v2.8H31.8z M32.4,51.9
		c1.3,0,2-0.5,2-1.5c0-0.9-0.7-1.4-2.2-1.4h-2.9v2.9H32.4z"/>
	<path class="st0" d="M41.7,42.9h1.7L48,53.5h-2L45,51h-5l-1.1,2.5H37L41.7,42.9z M44.3,49.3l-1.8-4.2l-1.8,4.2H44.3z"/>
	<path class="st0" d="M49.4,43h4.7c2.5,0,3.9,1.3,3.9,3.3c0,1.7-1,2.8-2.5,3.2l2.8,4h-2.2l-2.6-3.7h-2.3v3.7h-1.8
		C49.4,53.5,49.4,43,49.4,43z M53.9,48.2c1.3,0,2.2-0.7,2.2-1.8s-0.8-1.7-2.2-1.7h-2.7v3.5H53.9z"/>
	<path class="st0" d="M59.9,43h7.8v1.6h-5.9v2.7H67V49h-5.3v2.8h6v1.6h-7.9V43H59.9z"/>
	<path class="st0" d="M0.2,61.9c0-3,2.2-5.4,5.4-5.4c1.9,0,3.1,0.7,4.1,1.6l-1.2,1.4c-0.8-0.8-1.7-1.3-2.9-1.3c-2,0-3.5,1.6-3.5,3.7
		c0,2.1,1.5,3.7,3.5,3.7c1.3,0,2.1-0.5,3-1.4l1.2,1.2c-1.1,1.1-2.3,1.9-4.3,1.9C2.5,67.3,0.2,64.9,0.2,61.9z"/>
	<path class="st0" d="M10.6,61.9c0-3,2.3-5.4,5.5-5.4s5.5,2.4,5.5,5.4s-2.3,5.4-5.5,5.4S10.6,64.9,10.6,61.9z M19.7,61.9
		c0-2-1.5-3.7-3.6-3.7s-3.5,1.7-3.5,3.7s1.5,3.7,3.6,3.7C18.2,65.6,19.7,63.9,19.7,61.9z"/>
	<path class="st0" d="M23.4,56.6h4.7c2.5,0,3.9,1.3,3.9,3.3c0,1.7-1,2.8-2.5,3.2l2.8,4h-2.2l-2.6-3.7h-2.3v3.7h-1.8V56.6z M28,61.8
		c1.3,0,2.2-0.7,2.2-1.8s-0.8-1.7-2.2-1.7h-2.7v3.5H28z"/>
	<path class="st0" d="M33.9,56.6h7.8v1.6h-5.9V61H41v1.6h-5.3v2.8h6V67h-7.9V56.6H33.9z"/>
</g>
</svg>
